<svg xmlns="http://www.w3.org/2000/svg" xmlns:xlink="http://www.w3.org/1999/xlink" width="83" height="48"><defs><path id="a" d="M.42.363h25.056v25.18H.419z"/><path id="c" d="M.29.2h15.546v15.365H.29z"/><path id="e" d="M.298.2h15.547v15.365H.298z"/></defs><g fill="none" fill-rule="evenodd"><g transform="translate(57.16 21.67)"><mask id="b" fill="#fff"><use xlink:href="#a"/></mask><path fill="#167E78" d="M20.023 11.207a.86.86 0 01-.846-.88 1.587 1.587 0 00-1.557-1.624 1.585 1.585 0 00-1.625 1.556.858.858 0 11-1.718-.04 3.319 3.319 0 013.383-3.235 3.313 3.313 0 013.235 3.383.866.866 0 01-.872.84m-7.317 10.178a5.62 5.62 0 01-5.437-4.926c-.053-.42.296-.785.725-.785l9.68.217c.415 0 .751.392.684.81a5.602 5.602 0 01-5.652 4.684M6.719 10.056a.858.858 0 01-.873.84.865.865 0 01-.846-.867 3.31 3.31 0 013.384-3.234 3.29 3.29 0 013.234 3.37.855.855 0 01-.871.838.878.878 0 01-.847-.879 1.576 1.576 0 00-1.557-1.623 1.591 1.591 0 00-1.624 1.555m6.498-9.69C6.29.23.57 5.739.422 12.696.274 19.64 5.766 25.391 12.679 25.541c6.928.148 12.66-5.36 12.794-12.317C25.62 6.28 20.13.514 13.217.366" mask="url(#b)"/></g><path fill="#167E78" d="M17.527 22.26l-.069-.258a2.086 2.086 0 00-1.47-1.475l-.18-.049c-.332-.09-.326-.562.008-.643l.067-.016a2.088 2.088 0 001.509-1.44l.102-.346c.094-.324.557-.316.64.01l.049.19a2.08 2.08 0 001.454 1.49l.264.076c.328.092.32.56-.012.641l-.113.029a2.085 2.085 0 00-1.505 1.443l-.103.355c-.094.323-.554.318-.64-.007m54.871-7.857l-.04-.15a1.213 1.213 0 00-.857-.858l-.104-.03c-.194-.052-.19-.326.004-.374l.04-.009c.421-.103.756-.422.878-.838l.059-.201c.055-.19.325-.185.374.006l.027.11c.107.419.43.75.847.868l.154.043c.19.054.186.327-.007.374l-.066.016a1.216 1.216 0 00-.876.84l-.06.207c-.055.188-.323.185-.373-.004M36.487 10.13l-.045-.168a1.366 1.366 0 00-.962-.965l-.118-.032c-.217-.059-.213-.368.006-.421l.043-.01c.474-.116.85-.475.988-.943l.066-.226c.063-.212.365-.207.42.007l.031.124c.12.47.483.843.952.976l.172.048c.215.061.21.367-.007.42l-.074.018a1.365 1.365 0 00-.985.945l-.067.233c-.062.21-.363.208-.42-.005M13.163 23.48l-.032-.119a.963.963 0 00-.678-.68l-.083-.023c-.153-.041-.15-.26.004-.297l.03-.007a.963.963 0 00.697-.664l.046-.16c.044-.15.257-.146.296.005l.022.087a.96.96 0 00.671.688l.122.035c.151.043.147.259-.005.296l-.053.012a.962.962 0 00-.694.666l-.048.165c-.043.148-.255.146-.295-.004M32.926 5.803l-.029-.108a.87.87 0 00-.615-.617l-.075-.02c-.14-.038-.137-.236.003-.27l.028-.006a.873.873 0 00.631-.603l.043-.145c.04-.135.233-.132.268.005l.02.079c.077.301.31.539.609.624l.11.031c.137.04.134.235-.005.268l-.047.012a.872.872 0 00-.63.604l-.043.149c-.04.135-.232.133-.268-.003"/><g transform="translate(22.288 31.648)"><mask id="d" fill="#fff"><use xlink:href="#c"/></mask><path fill="#167E78" d="M14.5 15.564H1.627A1.33 1.33 0 01.29 14.246V1.521c0-.73.597-1.32 1.336-1.32H14.5c.738 0 1.336.59 1.336 1.32v12.723c0 .729-.598 1.32-1.335 1.32" mask="url(#d)"/></g><path fill="#1A928C" d="M25.875 38.346c.662-2.444 3.203-3.893 5.675-3.239 2.472.655 3.94 3.165 3.277 5.609-.662 2.443-3.203 3.893-5.675 3.239-2.472-.655-3.94-3.166-3.277-5.61"/><path fill="#10847E" d="M27.075 42.768a4.673 4.673 0 006.553 0l-6.553-6.475a4.54 4.54 0 000 6.475"/><g transform="translate(37.839 31.648)"><mask id="f" fill="#fff"><use xlink:href="#e"/></mask><path fill="#167E78" d="M14.51 15.564H1.634a1.33 1.33 0 01-1.336-1.319V1.521c0-.73.597-1.32 1.335-1.32H14.51c.737 0 1.336.59 1.336 1.32v12.723c0 .729-.598 1.32-1.336 1.32" mask="url(#f)"/></g><path fill="#1A928C" d="M41.434 38.346c.662-2.444 3.203-3.893 5.675-3.239 2.472.655 3.94 3.165 3.277 5.609-.662 2.443-3.203 3.893-5.675 3.239-2.473-.655-3.94-3.166-3.277-5.61"/><path fill="#10847E" d="M42.634 42.768a4.673 4.673 0 006.553 0l-6.553-6.475a4.54 4.54 0 000 6.475"/><path fill="#167E78" d="M36.789 31.785H23.915a1.33 1.33 0 01-1.337-1.32V17.743c0-.73.598-1.32 1.336-1.32h12.874c.738 0 1.336.59 1.336 1.32v12.723c0 .729-.597 1.32-1.335 1.32"/><path fill="#1A928C" d="M25.875 22.918c.662-2.443 3.203-3.893 5.675-3.238 2.472.654 3.94 3.165 3.277 5.608-.662 2.443-3.203 3.893-5.675 3.24-2.472-.656-3.94-3.167-3.277-5.61"/><path fill="#10847E" d="M27.075 27.341a4.673 4.673 0 006.553 0l-6.553-6.475a4.54 4.54 0 000 6.475"/><path fill="#167E78" d="M52.348 31.785H39.473a1.33 1.33 0 01-1.336-1.32V17.743c0-.73.598-1.32 1.336-1.32h12.874c.738 0 1.336.59 1.336 1.32v12.723c0 .729-.597 1.32-1.335 1.32"/><path fill="#1A928C" d="M41.434 22.918c.662-2.443 3.203-3.893 5.675-3.238 2.472.654 3.94 3.165 3.277 5.608-.662 2.443-3.203 3.893-5.675 3.24-2.473-.656-3.94-3.167-3.277-5.61"/><path fill="#10847E" d="M42.634 27.341a4.673 4.673 0 006.553 0l-6.553-6.475a4.54 4.54 0 000 6.475"/><path fill="#2A9994" d="M20.165 33.893L8.989 45.584c-2.024 2.117-5.342 2.179-7.41.138h-.001c-2.07-2.043-2.107-5.415-.083-7.533L12.67 26.5c2.024-2.117 5.342-2.179 7.411-.138 2.071 2.043 2.108 5.415.084 7.532"/><path fill="#1A928C" d="M7.082 32.345L1.494 38.19c-2.024 2.117-1.987 5.489.083 7.53 2.07 2.042 5.389 1.98 7.413-.137l5.587-5.845-7.495-7.393z"/><path fill="#1A928C" d="M17.677 47.213H31.31a4.37 4.37 0 004.364-4.376 4.37 4.37 0 00-4.364-4.376H17.677a4.37 4.37 0 00-4.364 4.376 4.37 4.37 0 004.364 4.376"/><path fill="#2A9994" d="M24.493 38.461h6.753c2.445 0 4.428 1.96 4.428 4.376 0 2.417-1.983 4.376-4.428 4.376h-6.753v-8.752z"/><path fill="#10847E" d="M52.356 40.996h7.77v-3.558h-7.77z"/><path fill="#208681" d="M45.467 4.102l2.688 31.388a2.778 2.778 0 002.763 2.527h10.646a2.778 2.778 0 002.763-2.527l2.688-31.388H45.467z"/><path fill="#1A928C" d="M67.206 0H44.98a.86.86 0 00-.86.86v2.381c0 .475.385.86.86.86h22.227a.86.86 0 00.858-.86V.861a.86.86 0 00-.858-.86m-.814 10.832H46.089l1.677 20.453h16.95l.44-4.758z"/><path fill="#1A928C" d="M55.337 28.47l-1.415-17.637h-7.833l.82 11.185.857 9.268h7.832z"/><path fill="#10847E" d="M58.314 24.66a4.14 4.14 0 01-5.664-1.522 4.164 4.164 0 011.517-5.68 4.14 4.14 0 015.665 1.522 4.164 4.164 0 01-1.518 5.68M50.106 2.469c.43 0 .78-.35.78-.783V0h-1.56v1.686c0 .432.349.783.78.783m2.994 0c.428 0 .78-.35.78-.783V0h-1.562v1.686c0 .432.35.783.781.783m-5.986 0a.782.782 0 00.78-.783V0h-1.56v1.686a.781.781 0 00.78.783m14.965 0c.43 0 .78-.35.78-.783V0h-1.56v1.686c0 .432.349.783.78.783m3.068 0c.43 0 .78-.35.78-.783V0h-1.56v1.686c0 .432.349.783.78.783m-9.054 0c.43 0 .78-.35.78-.783V0h-1.56v1.686c0 .432.349.783.78.783m2.993 0c.43 0 .78-.35.78-.783V0h-1.56v1.686c0 .432.349.783.78.783"/><path fill="#1A928C" d="M61.102 47.213h-10a1.515 1.515 0 01-1.514-1.515v-3.174c0-.837.678-1.516 1.514-1.516h10c.837 0 1.514.679 1.514 1.516v3.174c0 .836-.677 1.515-1.514 1.515"/></g></svg>