<?xml version="1.0" standalone="no"?>
<!DOCTYPE svg PUBLIC "-//W3C//DTD SVG 20010904//EN"
 "http://www.w3.org/TR/2001/REC-SVG-20010904/DTD/svg10.dtd">
<svg version="1.0" xmlns="http://www.w3.org/2000/svg"
 width="40.000000pt" height="30.000000pt" viewBox="0 0 418.000000 302.000000"
 preserveAspectRatio="xMidYMid meet">

<g transform="translate(0.000000,302.000000) scale(0.100000,-0.100000)"
fill="#000000" stroke="none">
<path d="M960 2420 l0 -150 260 0 260 0 0 -300 c0 -165 4 -300 8 -300 5 0 58
-9 118 -20 60 -11 115 -20 122 -20 9 0 12 71 12 320 l0 320 115 0 115 0 0
-349 c0 -324 1 -350 18 -355 9 -2 64 -16 122 -30 58 -13 113 -28 123 -31 16
-7 17 5 17 169 l0 176 285 0 285 0 0 -230 0 -230 135 0 135 0 0 590 0 590
-135 0 -135 0 0 -210 0 -210 -285 0 -285 0 0 210 0 210 -645 0 -645 0 0 -150z"/>
<path d="M883 1366 c-89 -21 -178 -71 -249 -141 -90 -89 -101 -120 -16 -47
142 122 210 146 412 145 176 0 276 -23 530 -118 349 -130 570 -196 733 -217
115 -14 410 -14 497 0 84 15 160 38 185 56 15 11 -1 10 -70 -6 -120 -26 -368
-28 -510 -4 -159 27 -239 50 -600 171 -424 143 -513 165 -705 170 -104 4 -163
1 -207 -9z"/>
<path d="M10 585 c0 -8 9 -15 20 -15 18 0 20 -7 20 -65 0 -51 3 -65 15 -65 12
0 15 14 15 65 0 58 2 65 20 65 11 0 20 7 20 15 0 12 -13 15 -55 15 -42 0 -55
-3 -55 -15z"/>
<path d="M240 520 c0 -64 3 -80 15 -80 10 0 15 10 15 30 0 27 3 30 30 30 27 0
30 -3 30 -30 0 -20 5 -30 15 -30 12 0 15 16 15 80 0 64 -3 80 -15 80 -10 0
-15 -11 -15 -35 0 -32 -2 -35 -30 -35 -28 0 -30 3 -30 35 0 24 -5 35 -15 35
-12 0 -15 -16 -15 -80z"/>
<path d="M500 520 l0 -80 51 0 c57 0 66 23 11 28 -42 4 -44 32 -2 32 20 0 30
5 30 15 0 10 -10 15 -30 15 -23 0 -30 4 -30 20 0 16 7 20 30 20 20 0 30 5 30
15 0 11 -12 15 -45 15 l-45 0 0 -80z"/>
<path d="M765 591 c-62 -26 -67 -113 -8 -140 54 -25 93 -10 93 35 0 31 -3 34
-30 34 -16 0 -30 -4 -30 -10 0 -5 7 -10 15 -10 8 0 15 -7 15 -15 0 -18 -41
-20 -58 -3 -15 15 -15 61 0 76 7 7 27 12 46 12 22 0 32 4 30 13 -5 15 -46 19
-73 8z"/>
<path d="M980 520 c0 -64 3 -80 15 -80 12 0 15 16 15 80 0 64 -3 80 -15 80
-12 0 -15 -16 -15 -80z"/>
<path d="M1182 590 c-28 -12 -45 -54 -37 -92 15 -67 104 -76 131 -13 18 43 2
92 -33 106 -29 11 -31 11 -61 -1z m64 -45 c3 -14 3 -37 0 -51 -5 -20 -12 -25
-34 -22 -23 2 -28 8 -30 36 -5 47 3 62 32 62 19 0 27 -7 32 -25z"/>
<path d="M1410 520 c0 -64 3 -80 15 -80 12 0 15 16 15 80 0 64 -3 80 -15 80
-12 0 -15 -16 -15 -80z"/>
<path d="M1570 585 c0 -8 9 -15 20 -15 18 0 20 -7 20 -65 0 -51 3 -65 15 -65
12 0 15 14 15 65 0 58 2 65 20 65 11 0 20 7 20 15 0 12 -13 15 -55 15 -42 0
-55 -3 -55 -15z"/>
<path d="M1800 520 c0 -64 3 -80 15 -80 10 0 15 10 15 30 0 28 3 30 35 30 32
0 35 -2 35 -30 0 -20 5 -30 15 -30 12 0 15 16 15 80 0 64 -3 80 -15 80 -10 0
-15 -11 -15 -35 0 -33 -2 -35 -35 -35 -33 0 -35 2 -35 35 0 24 -5 35 -15 35
-12 0 -15 -16 -15 -80z"/>
<path d="M2060 551 c0 -27 4 -61 10 -75 12 -33 52 -43 85 -22 22 15 25 23 25
81 0 50 -3 65 -15 65 -10 0 -15 -16 -17 -62 -2 -52 -6 -63 -22 -66 -26 -5 -36
15 -36 76 0 39 -4 52 -15 52 -11 0 -15 -12 -15 -49z"/>
<path d="M2352 590 c-28 -12 -45 -54 -37 -92 15 -67 104 -76 131 -13 18 43 2
92 -33 106 -29 11 -31 11 -61 -1z m64 -45 c3 -14 3 -37 0 -51 -5 -20 -12 -25
-34 -22 -23 2 -28 8 -30 36 -5 47 3 62 32 62 19 0 27 -7 32 -25z"/>
<path d="M2620 587 c-40 -20 -54 -59 -36 -101 11 -28 22 -36 50 -41 19 -4 39
-4 45 0 20 12 11 25 -17 25 -35 0 -52 16 -52 50 0 34 17 50 53 50 18 0 27 4
25 13 -6 17 -39 19 -68 4z"/>
<path d="M2837 587 c-27 -19 -18 -57 17 -76 39 -22 38 -35 -2 -39 -20 -2 -32
-8 -29 -15 6 -20 52 -19 77 1 29 24 19 60 -21 74 -39 14 -38 38 2 38 20 0 29
4 27 13 -6 17 -50 20 -71 4z"/>
<path d="M3040 520 c0 -64 3 -80 15 -80 12 0 15 16 15 80 0 64 -3 80 -15 80
-12 0 -15 -16 -15 -80z"/>
<path d="M3410 587 c-40 -20 -54 -59 -36 -101 11 -28 22 -36 50 -41 19 -4 39
-4 45 0 20 12 11 25 -17 25 -35 0 -52 16 -52 50 0 34 17 50 53 50 18 0 27 4
25 13 -6 17 -39 19 -68 4z"/>
<path d="M3634 590 c-53 -21 -46 -130 9 -144 58 -14 105 34 92 96 -11 47 -53
68 -101 48z m61 -70 c0 -42 -2 -45 -27 -48 -22 -3 -29 2 -34 22 -3 14 -3 38 0
52 5 20 12 25 34 22 25 -3 27 -6 27 -48z"/>
<path d="M3868 520 c-2 -57 0 -80 9 -80 7 0 15 24 19 58 l7 57 15 -58 c8 -33
19 -56 26 -54 6 2 18 28 27 57 14 46 17 50 22 29 4 -13 7 -39 7 -56 0 -24 5
-33 16 -33 14 0 16 8 10 53 -3 28 -6 65 -6 80 0 23 -4 28 -22 25 -16 -2 -25
-16 -36 -53 l-15 -50 -15 53 c-12 43 -19 52 -38 52 -21 0 -23 -4 -26 -80z"/>
<path d="M3214 469 c-10 -17 13 -36 27 -22 12 12 4 33 -11 33 -5 0 -12 -5 -16
-11z"/>
</g>
</svg>
